# xmcd
#
# Track frame offsets:
#	225
#	13219
#	25483
#	37226
#	49003
#	59142
#	69270
#	80463
#	93319
#	104243
#	116012
#	128867
#	140241
#	151585
#	164821
#	177242
#
# Disc length: 2498 seconds
#
# Revision: 0
# Processed by: cddbd v1.5.2PL0 Copyright (c) Steve Scherf et al.
# Submitted via: audiograbber 1.83.01
#
DISCID=ef09bf10
DTITLE=Diverse - Deutsche MIlitärmusik
DYEAR=2002
DGENRE=
TTITLE0=Badenweiler Marsch
TTITLE1=18er Husaren-Marsch
TTITLE2=Schneidige Truppe
TTITLE3=Präsentiert Marsch
TTITLE4=Mein Schlesierland 
TTITLE5=Wien bleibt Wien
TTITLE6=Hohenfriedberger Marsch
TTITLE7=Unter´m Sternenbanner
TTITLE8=High School Cadets
TTITLE9=Preussens Gloria
TTITLE10=Akte Kameraden
TTITLE11=Fehrbelliner Reitermarsch
TTITLE12=Deutschmeister Regimentsmarsch
TTITLE13=Königgrätzer Marsch
TTITLE14=Fredericus Rex Marsch 
TTITLE15=Radetzky Marsch 
EXTD=
EXTT0=
EXTT1=
EXTT2=
EXTT3=
EXTT4=
EXTT5=
EXTT6=
EXTT7=
EXTT8=
EXTT9=
EXTT10=
EXTT11=
EXTT12=
EXTT13=
EXTT14=
EXTT15=
PLAYORDER=
